<svg width="1140" height="360" xmlns="http://www.w3.org/2000/svg">

 <g>
  <title>background</title>
  <rect fill="none" id="canvas_background" height="402" width="582" y="-1" x="-1"/>
 </g>
 <g>
  <title>Layer 1</title>
  <path id="svg_1" d="m0,0l1140,0l0,360l-1140,0l0,-360z" fill="#56B4D9"/>
  <path id="svg_2" d="m163.29,114.514l-3.996,0l-3.266,-8.637l-13.063,0l-3.072,8.637l-4.018,0l11.816,-30.809l3.738,0l11.861,30.809zm-8.443,-11.881l-4.834,-13.127c-0.158,-0.43 -0.315,-1.117 -0.473,-2.063l-0.086,0c-0.144,0.874 -0.308,1.562 -0.494,2.063l-4.791,13.127l10.678,0zm10.921,10.635l0,-4.254c0.487,0.43 1.07,0.816 1.751,1.16c0.68,0.344 1.396,0.634 2.148,0.87s1.507,0.419 2.267,0.548c0.759,0.129 1.461,0.193 2.105,0.193c2.22,0 3.878,-0.412 4.974,-1.235s1.644,-2.009 1.644,-3.556c0,-0.831 -0.183,-1.554 -0.548,-2.17s-0.87,-1.178 -1.515,-1.687s-1.407,-0.995 -2.288,-1.461s-1.83,-0.956 -2.847,-1.472c-1.074,-0.544 -2.077,-1.096 -3.008,-1.654c-0.931,-0.559 -1.74,-1.175 -2.428,-1.848s-1.229,-1.436 -1.622,-2.288c-0.394,-0.853 -0.591,-1.852 -0.591,-2.997c0,-1.403 0.308,-2.625 0.924,-3.663c0.616,-1.038 1.425,-1.895 2.428,-2.567c1.002,-0.673 2.145,-1.175 3.427,-1.504c1.282,-0.329 2.589,-0.494 3.921,-0.494c3.036,0 5.249,0.365 6.639,1.096l0,4.061c-1.819,-1.261 -4.154,-1.891 -7.004,-1.891c-0.788,0 -1.576,0.082 -2.363,0.247c-0.788,0.165 -1.49,0.434 -2.105,0.806c-0.616,0.372 -1.117,0.853 -1.504,1.439s-0.58,1.304 -0.58,2.148c0,0.788 0.146,1.468 0.44,2.041c0.293,0.573 0.727,1.096 1.3,1.568c0.573,0.473 1.271,0.931 2.095,1.375c0.823,0.444 1.772,0.931 2.847,1.461c1.103,0.544 2.148,1.117 3.137,1.719s1.854,1.268 2.6,1.998c0.745,0.73 1.335,1.54 1.772,2.428c0.437,0.888 0.655,1.905 0.655,3.051c0,1.519 -0.297,2.804 -0.892,3.856c-0.595,1.053 -1.396,1.908 -2.406,2.567s-2.174,1.135 -3.491,1.429c-1.318,0.293 -2.707,0.44 -4.168,0.44c-0.487,0 -1.089,-0.04 -1.805,-0.118c-0.716,-0.079 -1.447,-0.193 -2.191,-0.344c-0.745,-0.15 -1.45,-0.337 -2.116,-0.559s-1.202,-0.467 -1.602,-0.739zm27.808,-10.399l0,11.645l-3.609,0l0,-30.809l8.465,0c3.294,0 5.847,0.802 7.659,2.406c1.812,1.604 2.718,3.867 2.718,6.789s-1.006,5.313 -3.019,7.176c-2.013,1.862 -4.73,2.793 -8.153,2.793l-4.061,0zm0,-15.898l0,12.633l3.781,0c2.492,0 4.394,-0.569 5.704,-1.708s1.966,-2.746 1.966,-4.823c0,-4.067 -2.406,-6.102 -7.219,-6.102l-4.232,0zm21.169,28.015c-0.659,0 -1.221,-0.236 -1.687,-0.709c-0.466,-0.473 -0.698,-1.038 -0.698,-1.697s0.232,-1.229 0.698,-1.708c0.465,-0.479 1.027,-0.72 1.687,-0.72c0.673,0 1.246,0.24 1.719,0.72s0.709,1.049 0.709,1.708s-0.236,1.225 -0.709,1.697s-1.047,0.709 -1.719,0.709zm33.007,-0.472l-4.426,0l-15.855,-24.557c-0.401,-0.616 -0.73,-1.261 -0.988,-1.934l-0.129,0c0.114,0.659 0.172,2.069 0.172,4.232l0,22.258l-3.609,0l0,-30.808l4.684,0l15.426,24.17c0.645,1.003 1.06,1.69 1.246,2.063l0.086,0c-0.144,-0.888 -0.215,-2.399 -0.215,-4.533l0,-21.7l3.609,0l0,30.809l-0.001,0zm23.79,0l-16.328,0l0,-30.809l15.641,0l0,3.266l-12.031,0l0,10.248l11.129,0l0,3.244l-11.129,0l0,10.785l12.719,0l0,3.266l-0.001,0zm23.533,-27.543l-8.895,0l0,27.543l-3.609,0l0,-27.543l-8.873,0l0,-3.266l21.377,0l0,3.266zm36.623,26.254c-2.277,1.203 -5.113,1.805 -8.508,1.805c-4.383,0 -7.892,-1.411 -10.527,-4.232c-2.636,-2.821 -3.953,-6.524 -3.953,-11.107c0,-4.927 1.482,-8.909 4.447,-11.945s6.725,-4.555 11.279,-4.555c2.922,0 5.342,0.423 7.262,1.268l0,3.846c-2.206,-1.231 -4.641,-1.848 -7.305,-1.848c-3.538,0 -6.406,1.182 -8.604,3.545c-2.199,2.363 -3.298,5.521 -3.298,9.475c0,3.753 1.027,6.742 3.083,8.97c2.055,2.228 4.751,3.341 8.089,3.341c3.094,0 5.772,-0.688 8.035,-2.063l0,3.5zm14.38,1.804c-3.251,0 -5.848,-1.027 -7.788,-3.083c-1.941,-2.056 -2.911,-4.78 -2.911,-8.175c0,-3.695 1.01,-6.581 3.029,-8.658s4.748,-3.115 8.186,-3.115c3.28,0 5.84,1.01 7.681,3.029c1.84,2.02 2.761,4.819 2.761,8.4c0,3.509 -0.992,6.32 -2.976,8.433c-1.984,2.113 -4.645,3.169 -7.982,3.169zm0.258,-20.066c-2.263,0 -4.054,0.77 -5.371,2.31c-1.318,1.54 -1.977,3.663 -1.977,6.37c0,2.606 0.666,4.662 1.998,6.166s3.115,2.256 5.35,2.256c2.277,0 4.028,-0.737 5.253,-2.213s1.837,-3.573 1.837,-6.295c0,-2.75 -0.612,-4.87 -1.837,-6.359s-2.976,-2.235 -5.253,-2.235zm27.185,1.117c-0.616,-0.473 -1.504,-0.709 -2.664,-0.709c-1.504,0 -2.761,0.709 -3.771,2.127s-1.515,3.352 -1.515,5.801l0,11.215l-3.523,0l0,-22l3.523,0l0,4.533l0.086,0c0.501,-1.547 1.268,-2.754 2.299,-3.62s2.184,-1.3 3.459,-1.3c0.917,0 1.618,0.101 2.105,0.301l0,3.652l0.001,0zm20.89,8.315l-15.533,0c0.057,2.449 0.716,4.34 1.977,5.672c1.26,1.332 2.993,1.998 5.199,1.998c2.478,0 4.755,-0.816 6.832,-2.449l0,3.309c-1.934,1.403 -4.49,2.105 -7.67,2.105c-3.108,0 -5.55,-0.999 -7.326,-2.997c-1.776,-1.998 -2.664,-4.809 -2.664,-8.433c0,-3.423 0.97,-6.213 2.911,-8.368c1.94,-2.155 4.351,-3.233 7.229,-3.233s5.106,0.931 6.682,2.793c1.575,1.862 2.363,4.447 2.363,7.756l0,1.847zm-3.61,-2.987c-0.015,-2.034 -0.505,-3.616 -1.472,-4.748s-2.31,-1.697 -4.028,-1.697c-1.662,0 -3.072,0.595 -4.232,1.783s-1.876,2.743 -2.148,4.662l11.88,0zm40.699,-39.408l-1,0l0,74l1,0l0,-74zm83.592,54.095l-1.842,0l-7.165,-24.235c-0.359,-1.243 -0.562,-2.253 -0.606,-3.032l-0.09,0c-0.045,0.659 -0.277,1.655 -0.696,2.987l-7.637,24.28l-1.842,0l-9.568,-32.209l2.493,0l7.345,25.808c0.329,1.168 0.562,2.119 0.696,2.853l0.09,0c0.09,-0.554 0.352,-1.505 0.786,-2.853l7.951,-25.808l1.123,0l7.3,25.808c0.344,1.198 0.576,2.149 0.696,2.853l0.09,0c0.075,-0.419 0.194,-0.898 0.359,-1.438l7.547,-27.223l2.403,0l-9.433,32.209zm14.445,-28.795c-0.449,0 -0.846,-0.165 -1.19,-0.494c-0.345,-0.329 -0.517,-0.749 -0.517,-1.258c0,-0.494 0.176,-0.895 0.528,-1.202c0.352,-0.307 0.745,-0.46 1.179,-0.46c0.464,0 0.872,0.15 1.224,0.449c0.352,0.3 0.528,0.704 0.528,1.213c0,0.479 -0.172,0.891 -0.517,1.235c-0.344,0.345 -0.756,0.517 -1.235,0.517zm-1.011,28.795l0,-23l2.066,0l0,23l-2.066,0zm24.239,0l0,-13.387c0,-5.525 -1.992,-8.288 -5.975,-8.288c-2.216,0 -4.036,0.813 -5.458,2.437c-1.423,1.625 -2.134,3.635 -2.134,6.031l0,13.207l-2.066,0l0,-23l2.066,0l0,4.178l0.09,0c1.677,-3.159 4.297,-4.739 7.861,-4.739c2.485,0 4.387,0.828 5.705,2.482c1.317,1.655 1.977,4.017 1.977,7.086l0,13.993l-2.066,0zm24.485,0l0,-4.178l-0.09,0c-0.748,1.453 -1.855,2.605 -3.324,3.459c-1.467,0.854 -3.122,1.28 -4.963,1.28c-2.83,0 -5.14,-1.033 -6.929,-3.1c-1.79,-2.066 -2.684,-4.919 -2.684,-8.558c0,-3.713 0.977,-6.719 2.931,-9.018c1.954,-2.298 4.488,-3.448 7.603,-3.448c3.445,0 5.9,1.415 7.367,4.245l0.09,0l0,-14.733l2.066,0l0,34.051l-2.067,0zm0,-13.993c0,-2.141 -0.678,-3.957 -2.031,-5.447c-1.355,-1.49 -3.18,-2.235 -5.47,-2.235c-2.411,0 -4.402,0.925 -5.975,2.774c-1.572,1.85 -2.358,4.391 -2.358,7.625c0,3.175 0.708,5.626 2.123,7.356s3.238,2.594 5.469,2.594c2.62,0 4.649,-0.812 6.086,-2.437c1.438,-1.625 2.156,-3.605 2.156,-5.941l0,-4.289zm17.838,14.554c-3.354,0 -6.009,-1.104 -7.962,-3.313c-1.955,-2.208 -2.932,-5.08 -2.932,-8.614c0,-3.818 1.021,-6.806 3.066,-8.962c2.043,-2.156 4.735,-3.234 8.074,-3.234c3.279,0 5.87,1.071 7.771,3.212c1.901,2.142 2.853,5.106 2.853,8.895c0,3.579 -0.97,6.477 -2.909,8.692c-1.938,2.216 -4.592,3.324 -7.961,3.324zm0.157,-22.236c-2.71,0 -4.87,0.914 -6.48,2.74c-1.609,1.827 -2.414,4.365 -2.414,7.614c0,3.01 0.786,5.428 2.358,7.255s3.721,2.74 6.446,2.74c2.771,0 4.904,-0.898 6.401,-2.695s2.246,-4.29 2.246,-7.479c0,-3.279 -0.745,-5.795 -2.235,-7.547c-1.489,-1.752 -3.596,-2.628 -6.322,-2.628zm35.087,21.675l-1.932,0l-5.009,-17.34c-0.135,-0.479 -0.255,-1.123 -0.359,-1.932l-0.112,0c-0.03,0.345 -0.18,0.974 -0.449,1.887l-5.615,17.385l-1.932,0l-6.94,-23l2.291,0l5.346,18.351c0.135,0.479 0.239,1.123 0.314,1.932l0.18,0c0.03,-0.434 0.172,-1.078 0.427,-1.932l5.84,-18.351l1.415,0l5.211,18.351c0.12,0.435 0.225,1.078 0.314,1.932l0.18,0c0,-0.434 0.127,-1.078 0.382,-1.932l5.458,-18.351l2.134,0l-7.144,23zm9.616,-1.011l0,-2.493c0.778,0.674 1.722,1.206 2.83,1.595c1.108,0.39 2.066,0.584 2.875,0.584c3.608,0 5.413,-1.475 5.413,-4.425c0,-1.018 -0.396,-1.887 -1.19,-2.605s-2.081,-1.46 -3.863,-2.224c-2.201,-0.958 -3.747,-1.95 -4.638,-2.976c-0.892,-1.025 -1.337,-2.272 -1.337,-3.74c0,-1.872 0.715,-3.384 2.146,-4.537c1.43,-1.153 3.192,-1.729 5.289,-1.729c1.977,0 3.669,0.404 5.076,1.213l0,2.336c-1.707,-1.108 -3.474,-1.662 -5.301,-1.662c-1.513,0 -2.732,0.393 -3.661,1.179s-1.393,1.808 -1.393,3.066c0,1.093 0.292,1.98 0.876,2.662c0.584,0.682 1.872,1.464 3.863,2.347c2.396,1.078 4.043,2.078 4.941,2.999s1.348,2.145 1.348,3.672c0,1.827 -0.686,3.335 -2.055,4.526c-1.371,1.19 -3.261,1.786 -5.672,1.786c-2.215,-0.002 -4.064,-0.526 -5.547,-1.574zm80.185,1.011l0,-32.209l2.224,0l0,30.188l12.915,0l0,2.021l-15.139,0zm20.802,-28.795c-0.449,0 -0.846,-0.165 -1.19,-0.494c-0.345,-0.329 -0.517,-0.749 -0.517,-1.258c0,-0.494 0.176,-0.895 0.528,-1.202c0.352,-0.307 0.744,-0.46 1.179,-0.46c0.464,0 0.872,0.15 1.224,0.449c0.353,0.3 0.528,0.704 0.528,1.213c0,0.479 -0.172,0.891 -0.517,1.235c-0.345,0.345 -0.756,0.517 -1.235,0.517zm-1.011,28.795l0,-23l2.066,0l0,23l-2.066,0zm24.238,0l0,-13.387c0,-5.525 -1.991,-8.288 -5.975,-8.288c-2.216,0 -4.035,0.813 -5.458,2.437c-1.423,1.625 -2.134,3.635 -2.134,6.031l0,13.207l-2.066,0l0,-23l2.066,0l0,4.178l0.09,0c1.677,-3.159 4.298,-4.739 7.861,-4.739c2.485,0 4.388,0.828 5.705,2.482c1.317,1.655 1.977,4.017 1.977,7.086l0,13.993l-2.066,0zm23.34,0l0,-4.178l-0.09,0c-1.603,3.16 -4.073,4.739 -7.412,4.739c-5.436,0 -8.153,-3.421 -8.153,-10.265l0,-13.296l2.089,0l0,12.78c0,3.115 0.513,5.376 1.539,6.783c1.025,1.408 2.639,2.111 4.84,2.111c2.142,0 3.875,-0.786 5.199,-2.358c1.326,-1.572 1.988,-3.668 1.988,-6.289l0,-13.027l2.066,0l0,23l-2.066,0zm15.727,-11.276l7.502,11.275l-2.628,0l-6.064,-9.703l-0.09,0l-0.809,1.28c-0.104,0.18 -0.232,0.382 -0.382,0.606l-5.076,7.816l-2.516,0l7.682,-11.23l-7.547,-11.77l2.426,0l5.121,8.243c0.659,1.063 1.056,1.722 1.19,1.977l0.09,0l1.146,-1.887l5.346,-8.333l2.426,0l-7.817,11.726zm85.656,11.837c-4.552,0 -8.18,-1.512 -10.883,-4.537c-2.702,-3.024 -4.054,-6.955 -4.054,-11.792c0,-5.136 1.389,-9.25 4.167,-12.342c2.777,-3.092 6.569,-4.638 11.376,-4.638c4.343,0 7.857,1.486 10.546,4.458c2.688,2.973 4.031,6.87 4.031,11.691c0,5.331 -1.378,9.523 -4.133,12.578s-6.438,4.582 -11.05,4.582zm0.224,-31.288c-3.743,0 -6.824,1.355 -9.242,4.065c-2.419,2.71 -3.628,6.259 -3.628,10.646c0,4.433 1.146,7.962 3.437,10.59s5.346,3.942 9.164,3.942c3.983,0 7.135,-1.299 9.456,-3.897c2.321,-2.598 3.481,-6.218 3.481,-10.86c0,-4.552 -1.135,-8.104 -3.402,-10.658c-2.27,-2.551 -5.357,-3.828 -9.266,-3.828zm19.702,29.581l0,-2.538c2.306,1.468 4.642,2.201 7.008,2.201c2.516,0 4.425,-0.52 5.728,-1.561s1.954,-2.497 1.954,-4.369c0,-1.647 -0.438,-2.961 -1.313,-3.942c-0.877,-0.98 -2.774,-2.317 -5.694,-4.009c-3.265,-1.901 -5.331,-3.493 -6.199,-4.773s-1.303,-2.759 -1.303,-4.436c0,-2.276 0.884,-4.208 2.65,-5.795c1.767,-1.587 4.125,-2.381 7.075,-2.381c1.917,0 3.833,0.322 5.75,0.966l0,2.336c-1.887,-0.854 -3.9,-1.28 -6.042,-1.28c-2.187,0 -3.919,0.554 -5.2,1.662c-1.279,1.108 -1.92,2.516 -1.92,4.223c0,1.647 0.438,2.958 1.314,3.931c0.875,0.974 2.766,2.299 5.671,3.976c3.01,1.707 5.013,3.223 6.009,4.548c0.995,1.325 1.493,2.849 1.493,4.571c0,2.471 -0.857,4.485 -2.571,6.042c-1.715,1.558 -4.137,2.336 -7.267,2.336c-1.108,0 -2.385,-0.172 -3.829,-0.517c-1.446,-0.345 -2.551,-0.742 -3.314,-1.191zm40.5,1.146l-7.412,-12.286c-0.464,-0.764 -0.861,-1.512 -1.19,-2.246l-0.112,0c-0.404,0.824 -0.831,1.572 -1.28,2.246l-7.547,12.286l-2.673,0l10.175,-16.239l-9.568,-15.97l2.673,0l7.21,12.106c0.374,0.629 0.764,1.348 1.168,2.156l0.09,0l1.19,-2.156l7.165,-12.106l2.583,0l-9.658,15.925l9.883,16.284l-2.697,0z" fill="#fff"/>
  <path d="m162.5,107c1,0 4,0 7,0c5,0 10,0 13,0c4,0 8.878555,-0.493462 12,-1c1.974182,-0.320366 4.884964,-0.274315 7,-1c4.823029,-1.654816 7.907791,-1.496223 12,-2c2.977524,-0.366547 5.925797,-0.497551 11,-1c3.98053,-0.39415 7,0 10,0c3,0 4,0 5,0c1,0 2.375595,-0.536659 4,1c5.856857,5.540504 4,7 4,7c2,7 4.990234,13.79026 6,21c0.832214,5.942001 1,12 1,16c0,4 0,6 0,9l-1,3l-1,3l0,2" id="svg_3" fill-opacity="null" stroke-opacity="null" stroke-width="null" stroke="null" fill="none"/>
  <path d="m303.5,108c0,0 1,0 2,0c1,0 5.577179,5.736572 9,14c3.630463,8.764694 5.691254,15.071793 7,20c1.623322,6.112686 2.917603,6.386871 4,9c1.148041,2.771637 0,4 1,6c0,0 0.839813,1.012909 1,2c0.506531,3.121445 2,5 3,7l1,1l0,1l1,1" id="svg_4" fill-opacity="null" stroke-opacity="null" stroke-width="null" stroke="null" fill="none"/>
  <path d="m167.5,303c1,0 5.266006,-0.139008 13,-3c6.291519,-2.327393 17.506165,-8.01004 28,-14c10.601105,-6.051178 16.847641,-13.17804 25,-20c4.910614,-4.109253 10.453064,-7.208099 10,-10c-0.358185,-2.207199 -5,-1 -11,2c-6,3 -12.297119,5.499084 -21,11c-7.27153,4.596191 -10,7 -12,9c0,0 0.053497,0.459503 2,0c4.352509,-1.027496 9.748505,-6.465851 15,-9c7.694931,-3.713226 14.647095,-6.674103 18,-8c5.65654,-2.236877 8,-1 8,-2c0,-2 -5,2 -6,3l-1,0l-1,1" id="svg_5" fill-opacity="null" stroke-opacity="null" stroke-width="null" stroke="null" fill="none"/>
  <rect id="svg_6" height="93" width="888" y="52" x="110.5" fill-opacity="null" stroke-opacity="null" stroke-width="null" stroke="null" fill="#56B4D9"/>
  <text stroke="null" xml:space="preserve" text-anchor="start" font-family="Arvo, sans-serif" font-size="35" id="svg_7" y="123" x="591.5" stroke-opacity="null" stroke-width="0" fill="#ffffff">Run your application anywhere</text>
  <text stroke="null" xml:space="preserve" text-anchor="start" font-family="Arvo, sans-serif" font-size="52" id="svg_9" y="128" x="75.5" stroke-opacity="null" stroke-width="0" fill="#ffffff">ASP.NET Core 1.1</text>
  <line stroke-linecap="null" stroke-linejoin="null" id="svg_10" y2="182" x2="521.5" y1="49" x1="513.5" fill-opacity="null" stroke-opacity="null" stroke-width="null" stroke="null" fill="none"/>
  <path d="m504.5,64c0,2 0.708557,5.041847 2,13c0.816772,5.03318 1,16 1,21c0,9 0.329926,14.013626 0,18c-0.501709,6.062035 -1,10 -1,15c0,5 -0.430481,9.132996 1,13c0.775787,2.097168 1.486267,4.823746 2,7c0.229767,0.973251 -0.707092,2.292892 0,3c0.707092,0.707108 1,2 2,3c1,1 2.076111,2.61731 3,3c1.30658,0.541199 1,2 1,3l1,0l1,2l0,1" id="svg_11" stroke-opacity="null" stroke-width="null" stroke="null" fill="none"/>
  <rect id="svg_12" height="135" width="3" y="37" x="545.5" stroke-opacity="null" stroke-width="null" stroke="null" fill="#ffffff"/>
 </g>
</svg>